<svg width="201" height="26" viewBox="0 0 201 26" fill="none" xmlns="http://www.w3.org/2000/svg">
<path d="M0.2015 24V0.768H6.6655C8.9695 0.768 10.9322 1.12 12.5535 1.824C14.1748 2.528 15.4762 3.456 16.4575 4.608C17.4602 5.76 18.1855 7.04 18.6335 8.448C19.1028 9.856 19.3375 11.2747 19.3375 12.704C19.3375 14.432 19.0282 15.9893 18.4095 17.376C17.7908 18.7627 16.9482 19.9573 15.8815 20.96C14.8148 21.9413 13.5882 22.6987 12.2015 23.232C10.8148 23.744 9.34283 24 7.7855 24H0.2015ZM3.6255 20.704H7.1455C8.40417 20.704 9.55617 20.5227 10.6015 20.16C11.6682 19.7973 12.5855 19.264 13.3535 18.56C14.1428 17.856 14.7508 16.992 15.1775 15.968C15.6042 14.944 15.8175 13.7707 15.8175 12.448C15.8175 11.0187 15.5722 9.78133 15.0815 8.736C14.6122 7.66933 13.9828 6.79467 13.1935 6.112C12.4042 5.408 11.5188 4.896 10.5375 4.576C9.5775 4.23467 8.59617 4.064 7.5935 4.064H3.6255V20.704ZM30.7883 0.768C32.0043 0.768 33.1243 0.938666 34.1483 1.28C35.1936 1.6 36.0789 2.06933 36.8043 2.688C37.5509 3.30667 38.1269 4.07467 38.5323 4.992C38.9589 5.888 39.1723 6.93333 39.1723 8.128C39.1723 9.04533 39.0336 9.952 38.7563 10.848C38.4789 11.744 38.0309 12.5547 37.4123 13.28C36.7936 14.0053 35.9829 14.592 34.9803 15.04C33.9776 15.4667 32.7296 15.68 31.2363 15.68H27.8443V24H24.4203V0.768H30.7883ZM31.1723 12.416C32.0469 12.416 32.7723 12.2773 33.3483 12C33.9456 11.7227 34.4043 11.3813 34.7243 10.976C35.0656 10.5493 35.3003 10.1013 35.4283 9.632C35.5776 9.14133 35.6523 8.672 35.6523 8.224C35.6523 7.79733 35.5776 7.34933 35.4283 6.88C35.3003 6.41067 35.0656 5.96267 34.7243 5.536C34.4043 5.10933 33.9669 4.75733 33.4123 4.48C32.8576 4.20267 32.1749 4.064 31.3643 4.064H27.8443V12.416H31.1723ZM35.1083 14.4L41.1243 24H37.1562L31.0443 14.496L35.1083 14.4ZM45.7015 0.768H49.1255V24H45.7015V0.768ZM57.687 0.768L65.175 19.456L63.223 19.104L70.231 0.768H74.263L63.927 25.088L53.623 0.768H57.687ZM78.7328 0.768H93.9968V4.064H82.1568V10.688H92.6848V13.984H82.1568V20.704H94.4448V24H78.7328V0.768Z" fill="#424242"/>
<path d="M122.241 6.144C121.345 5.65333 120.428 5.248 119.489 4.928C118.572 4.608 117.708 4.448 116.897 4.448C115.894 4.448 115.105 4.65067 114.529 5.056C113.953 5.46133 113.665 6.06933 113.665 6.88C113.665 7.43467 113.878 7.936 114.305 8.384C114.753 8.81067 115.318 9.19467 116.001 9.536C116.705 9.87733 117.43 10.1867 118.177 10.464C118.86 10.72 119.532 11.0293 120.193 11.392C120.876 11.7333 121.484 12.1707 122.017 12.704C122.55 13.216 122.977 13.8667 123.297 14.656C123.617 15.424 123.777 16.3733 123.777 17.504C123.777 18.6987 123.468 19.808 122.849 20.832C122.23 21.856 121.324 22.688 120.129 23.328C118.934 23.9467 117.462 24.256 115.713 24.256C114.817 24.256 113.9 24.1707 112.961 24C112.044 23.808 111.137 23.5307 110.241 23.168C109.345 22.784 108.481 22.304 107.649 21.728L109.697 18.112C110.252 18.5173 110.849 18.88 111.489 19.2C112.15 19.4987 112.812 19.7333 113.473 19.904C114.134 20.0747 114.742 20.16 115.297 20.16C115.852 20.16 116.406 20.0853 116.961 19.936C117.537 19.7653 118.006 19.488 118.369 19.104C118.753 18.72 118.945 18.1867 118.945 17.504C118.945 17.0347 118.785 16.608 118.465 16.224C118.166 15.84 117.75 15.488 117.217 15.168C116.705 14.848 116.14 14.5707 115.521 14.336C114.796 14.0587 114.049 13.7387 113.281 13.376C112.513 13.0133 111.788 12.576 111.105 12.064C110.444 11.5307 109.9 10.88 109.473 10.112C109.068 9.32267 108.865 8.36267 108.865 7.232C108.865 5.86667 109.164 4.68267 109.761 3.68C110.38 2.67733 111.244 1.888 112.353 1.312C113.462 0.714665 114.742 0.383999 116.193 0.32C118.092 0.32 119.628 0.543999 120.801 0.991999C121.996 1.44 123.062 1.97333 124.001 2.592L122.241 6.144ZM148.129 0.447998V24H143.489V14.432H132.961V24H128.321V0.447998H132.961V9.952H143.489V0.447998H148.129ZM152.756 12.256C152.756 10.6347 153.066 9.09867 153.684 7.648C154.303 6.19733 155.156 4.91733 156.244 3.808C157.354 2.67733 158.634 1.792 160.084 1.152C161.535 0.511999 163.092 0.191999 164.756 0.191999C166.399 0.191999 167.946 0.511999 169.396 1.152C170.847 1.792 172.127 2.67733 173.236 3.808C174.367 4.91733 175.242 6.19733 175.86 7.648C176.5 9.09867 176.82 10.6347 176.82 12.256C176.82 13.92 176.5 15.4773 175.86 16.928C175.242 18.3787 174.367 19.6587 173.236 20.768C172.127 21.856 170.847 22.7093 169.396 23.328C167.946 23.9467 166.399 24.256 164.756 24.256C163.092 24.256 161.535 23.9467 160.084 23.328C158.634 22.7093 157.354 21.856 156.244 20.768C155.156 19.6587 154.303 18.3787 153.684 16.928C153.066 15.4773 152.756 13.92 152.756 12.256ZM157.556 12.256C157.556 13.3013 157.738 14.2827 158.1 15.2C158.484 16.096 159.007 16.896 159.668 17.6C160.351 18.2827 161.13 18.816 162.004 19.2C162.9 19.584 163.871 19.776 164.916 19.776C165.919 19.776 166.847 19.584 167.7 19.2C168.575 18.816 169.332 18.2827 169.972 17.6C170.612 16.896 171.114 16.096 171.476 15.2C171.839 14.2827 172.02 13.3013 172.02 12.256C172.02 11.1893 171.828 10.1973 171.444 9.28C171.082 8.36267 170.57 7.56267 169.908 6.88C169.268 6.176 168.511 5.632 167.636 5.248C166.762 4.864 165.812 4.672 164.788 4.672C163.764 4.672 162.815 4.864 161.94 5.248C161.066 5.632 160.298 6.176 159.636 6.88C158.975 7.56267 158.463 8.36267 158.1 9.28C157.738 10.1973 157.556 11.1893 157.556 12.256ZM188.582 0.447998C190.524 0.447998 192.166 0.778665 193.51 1.44C194.854 2.08 195.878 2.99733 196.582 4.192C197.286 5.36533 197.638 6.76267 197.638 8.384C197.638 9.344 197.489 10.3147 197.19 11.296C196.913 12.256 196.454 13.1307 195.814 13.92C195.196 14.7093 194.353 15.3493 193.286 15.84C192.241 16.3093 190.95 16.544 189.414 16.544H186.086V24H181.446V0.447998H188.582ZM189.382 12.032C190.086 12.032 190.673 11.9147 191.142 11.68C191.612 11.424 191.974 11.1147 192.23 10.752C192.508 10.368 192.7 9.97333 192.806 9.568C192.934 9.16267 192.998 8.81067 192.998 8.512C192.998 8.27733 192.956 7.968 192.87 7.584C192.806 7.17867 192.657 6.77333 192.422 6.368C192.188 5.96267 191.825 5.62133 191.334 5.344C190.865 5.06667 190.225 4.928 189.414 4.928H186.086V12.032H189.382ZM196.043 21.696C196.043 21.0347 196.277 20.48 196.747 20.032C197.237 19.584 197.771 19.36 198.347 19.36C198.88 19.36 199.381 19.584 199.851 20.032C200.341 20.48 200.587 21.0347 200.587 21.696C200.587 22.4 200.341 22.9653 199.851 23.392C199.381 23.7973 198.88 24 198.347 24C197.771 24 197.237 23.7973 196.747 23.392C196.277 22.9653 196.043 22.4 196.043 21.696Z" fill="#3F91D5"/>
</svg>
