<svg width="25" height="24" viewBox="0 0 25 24" fill="none" xmlns="http://www.w3.org/2000/svg">
<path d="M9.16992 14.3301C9.16992 15.6201 10.1599 16.6601 11.3899 16.6601H13.8999C14.9699 16.6601 15.8399 15.7501 15.8399 14.6301C15.8399 13.4101 15.3099 12.9801 14.5199 12.7001L10.4899 11.3001C9.69992 11.0201 9.16992 10.5901 9.16992 9.37009C9.16992 8.25009 10.0399 7.34009 11.1099 7.34009H13.6199C14.8499 7.34009 15.8399 8.38009 15.8399 9.67009" stroke="#343434" stroke-width="1.5" stroke-linecap="round" stroke-linejoin="round"/>
<path d="M12.5 6V18" stroke="#343434" stroke-width="1.5" stroke-linecap="round" stroke-linejoin="round"/>
<path d="M2.5 9C2.5 4 4.5 2 9.5 2H15.5C20.5 2 22.5 4 22.5 9V15C22.5 20 20.5 22 15.5 22H9.5C4.5 22 2.5 20 2.5 15V13.03" stroke="#343434" stroke-width="1.5" stroke-linecap="round" stroke-linejoin="round"/>
</svg>
