<svg width="25" height="24" viewBox="0 0 25 24" fill="none" xmlns="http://www.w3.org/2000/svg">
<path d="M18.5001 7.16C18.4401 7.15 18.3701 7.15 18.3101 7.16C16.9301 7.11 15.8301 5.98 15.8301 4.58C15.8301 3.15 16.9801 2 18.4101 2C19.8401 2 20.9901 3.16 20.9901 4.58C20.9801 5.98 19.8801 7.11 18.5001 7.16Z" stroke="#343434" stroke-width="1.5" stroke-linecap="round" stroke-linejoin="round"/>
<path d="M17.4699 14.4399C18.8399 14.6699 20.3499 14.4299 21.4099 13.7199C22.8199 12.7799 22.8199 11.2399 21.4099 10.2999C20.3399 9.58992 18.8099 9.34991 17.4399 9.58991" stroke="#343434" stroke-width="1.5" stroke-linecap="round" stroke-linejoin="round"/>
<path d="M6.46998 7.16C6.52998 7.15 6.59998 7.15 6.65998 7.16C8.03998 7.11 9.13998 5.98 9.13998 4.58C9.13998 3.15 7.98998 2 6.55998 2C5.12998 2 3.97998 3.16 3.97998 4.58C3.98998 5.98 5.08998 7.11 6.46998 7.16Z" stroke="#343434" stroke-width="1.5" stroke-linecap="round" stroke-linejoin="round"/>
<path d="M7.49994 14.4399C6.12994 14.6699 4.61994 14.4299 3.55994 13.7199C2.14994 12.7799 2.14994 11.2399 3.55994 10.2999C4.62994 9.58992 6.15994 9.34991 7.52994 9.58991" stroke="#343434" stroke-width="1.5" stroke-linecap="round" stroke-linejoin="round"/>
<path d="M12.5001 14.63C12.4401 14.62 12.3701 14.62 12.3101 14.63C10.9301 14.58 9.83008 13.45 9.83008 12.05C9.83008 10.62 10.9801 9.46997 12.4101 9.46997C13.8401 9.46997 14.9901 10.63 14.9901 12.05C14.9801 13.45 13.8801 14.59 12.5001 14.63Z" stroke="#343434" stroke-width="1.5" stroke-linecap="round" stroke-linejoin="round"/>
<path d="M15.4102 17.7799C13.8202 16.7199 11.1902 16.7199 9.59021 17.7799C8.18021 18.7199 8.18021 20.2599 9.59021 21.1999C11.1902 22.2699 13.8102 22.2699 15.4102 21.1999" stroke="#343434" stroke-width="1.5" stroke-linecap="round" stroke-linejoin="round"/>
</svg>
